<?xml version="1.0" encoding="UTF-8"?><svg xmlns="http://www.w3.org/2000/svg" viewBox="0 0 512 512"><defs><style>.cls-1{fill:#fff;fill-rule:evenodd;}.cls-2{fill:#38bdf8;font-family:FederationWide, FederationWide;font-size:51.84px;}</style></defs><g id="_9999_1" data-layer-role="icon" data-root-id="6458161972235"><path class="cls-1" d="M259.19,170l-4.81,28.97-9-17.36,7.17,22.93-23.22-19.65,19.22,23.1-22.5-7.04,17.73,9.19-29.34,4.62,28.97,4.81-17.35,9,22.93-7.17-19.66,23.23,23.1-19.22-7.04,22.49,9.19-17.73,4.62,29.35,4.81-28.97,9,17.35-7.17-22.93,23.23,19.66-19.22-23.1,22.49,7.04-17.73-9.19,29.35-4.62-28.97-4.81,17.35-9-22.93,7.17,19.66-23.23-23.1,19.22,7.04-22.49-9.19,17.73-4.63-29.35h0ZM375.56,215.8c-.52,0-.93.41-.93.93s.41.93.93.93.93-.41.93-.93c-.01-.51-.42-.93-.93-.93h0ZM280.71,124.67c-.52,0-.93.41-.93.93s.41.93.93.93.93-.41.93-.93-.42-.93-.93-.93h0ZM214.68,106.07c-.52,0-.93.41-.93.93s.41.93.93.93.93-.41.93-.93-.41-.93-.93-.93h0ZM183.06,163.73c-.52,0-.93.41-.93.93s.41.93.93.93.93-.41.93-.93c0-.52-.41-.93-.93-.93h0ZM201.66,250.21c-.52,0-.93.41-.93.93s.41.93.93.93.93-.41.93-.93c0-.52-.42-.93-.93-.93h0ZM294.65,267.88c-.52,0-.93.41-.93.93s.41.93.93.93.93-.41.93-.93-.41-.93-.93-.93h0ZM301.16,229.76c.52,0,.93.41.93.93s-.41.93-.93.93-.93-.41-.93-.93.41-.93.93-.93h0ZM289.58,252.15l.42,1.86,1.85.41-1.86.42-.41,1.85-.42-1.86-1.85-.41,1.86-.42.41-1.85h0ZM237,264.16l-.85,3.78-3.8.87,3.78.85.87,3.8.85-3.78,3.8-.87-3.78-.85-.87-3.8h0ZM327.67,150.71c-1.28,0-2.33,1.05-2.33,2.33s1.05,2.33,2.33,2.33,2.33-1.05,2.33-2.33c-.01-1.29-1.05-2.33-2.33-2.33h0ZM357.89,179.53c-.52,0-.93.41-.93.93s.41.93.93.93.93-.41.93-.93-.41-.93-.93-.93h0ZM332.78,126.53c-.52,0-.93.41-.93.93s.41.93.93.93.93-.41.93-.93-.42-.93-.93-.93h0ZM169.11,199.99c-.52,0-.93.41-.93.93s.41.93.93.93.93-.41.93-.93c0-.51-.41-.93-.93-.93h0ZM222.12,278.11c-.52,0-.93.41-.93.93s.41.93.93.93.93-.41.93-.93-.41-.93-.93-.93h0ZM180.74,243.7c-1.28,0-2.33,1.05-2.33,2.33s1.05,2.33,2.33,2.33,2.33-1.05,2.33-2.33c-.01-1.28-1.05-2.33-2.33-2.33h0ZM235.6,120.03c-1.28,0-2.33,1.05-2.33,2.33s1.05,2.33,2.33,2.33,2.33-1.05,2.33-2.33-1.05-2.33-2.33-2.33h0ZM369.05,163.73c-1.02,0-1.86.83-1.86,1.86s.83,1.86,1.86,1.86,1.86-.83,1.86-1.86-.84-1.86-1.86-1.86h0ZM283.49,110.72c-1.02,0-1.86.83-1.86,1.86s.83,1.86,1.86,1.86,1.86-.83,1.86-1.86-.84-1.86-1.86-1.86h0ZM183.06,145.13c-1.02,0-1.86.83-1.86,1.86s.83,1.86,1.86,1.86,1.86-.83,1.86-1.86c0-1.04-.83-1.86-1.86-1.86h0ZM299.3,243.7c1.02,0,1.86.83,1.86,1.86s-.83,1.86-1.86,1.86-1.86-.83-1.86-1.86c.01-1.04.84-1.86,1.86-1.86h0ZM254.67,281.83c-1.02,0-1.86.83-1.86,1.86s.83,1.86,1.86,1.86,1.86-.83,1.86-1.86-.84-1.86-1.86-1.86h0ZM389.08,232.62l-.41,1.85-1.86.42,1.85.41.42,1.86.41-1.85,1.86-.42-1.85-.41-.42-1.86h0ZM346.3,148l-.41,1.85-1.86.42,1.85.41.42,1.86.41-1.85,1.86-.42-1.85-.41-.42-1.86h0ZM257.03,106.15l-.41,1.85-1.86.42,1.85.41.42,1.86.41-1.85,1.86-.42-1.85-.41-.42-1.86h0ZM166.82,220.53l-.41,1.85-1.86.42,1.85.41.42,1.86.41-1.85,1.86-.42-1.85-.41-.42-1.86h0ZM207.71,121.88l-1.44,6.42-6.46,1.48,6.42,1.45,1.48,6.46,1.45-6.42,6.46-1.48-6.42-1.44-1.49-6.47h0ZM380.09,190.22l-1.45,6.42-6.46,1.48,6.42,1.45,1.48,6.46,1.45-6.42,6.46-1.48-6.42-1.45-1.48-6.46h0ZM312.33,121.88l-1.02,4.53-4.56,1.05,4.53,1.01,1.05,4.56,1.01-4.53,4.56-1.05-4.53-1.01-1.04-4.56h0ZM166.33,173.02l-1.01,4.53-4.56,1.05,4.53,1.01,1.05,4.56,1.01-4.53,4.56-1.05-4.53-1.01-1.05-4.56h0ZM274.2,266.02l-1.01,4.53-4.56,1.05,4.53,1.01,1.05,4.56,1.01-4.53,4.56-1.05-4.53-1.01-1.05-4.56h0ZM198.4,263.23l-.77,3.4-3.42.79,3.4.77.79,3.42.77-3.4,3.42-.79-3.4-.77-.79-3.42h0ZM340.68,268.81l-.77,3.4-3.42.79,3.4.77.79,3.42.77-3.4,3.42-.79-3.4-.77-.79-3.42h0ZM122.3,253.4c-.91,0-1.66.75-1.66,1.66s.75,1.66,1.66,1.66,1.66-.75,1.66-1.66-.75-1.66-1.66-1.66h0ZM124.88,206.5c-.52,0-.93.41-.93.93s.41.93.93.93.93-.41.93-.93c-.01-.52-.42-.93-.93-.93h0ZM136.03,245.57c-.52,0-.93.41-.93.93s.41.93.93.93.93-.41.93-.93-.41-.93-.93-.93h0ZM178.41,312.52c-.52,0-.93.41-.93.93s.41.93.93.93.93-.41.93-.93-.41-.93-.93-.93h0ZM208.17,307.87c-.52,0-.93.41-.93.93s.41.93.93.93.93-.41.93-.93c-.01-.52-.42-.93-.93-.93h0ZM285.36,291.13c-.52,0-.93.41-.93.93s.41.93.93.93.93-.41.93-.93c0-.52-.42-.93-.93-.93h0ZM322.55,290.2c-.52,0-.93.41-.93.93s.41.93.93.93.93-.41.93-.93-.42-.93-.93-.93h0ZM343.94,229.76c-.52,0-.93.41-.93.93s.41.93.93.93.93-.41.93-.93c-.01-.52-.42-.93-.93-.93h0ZM303.95,179.53c.52,0,.93.41.93.93s-.41.93-.93.93-.93-.41-.93-.93c.01-.52.42-.93.93-.93h0ZM290,149.78c-.52,0-.93.41-.93.93s.41.93.93.93.93-.41.93-.93-.41-.93-.93-.93h0ZM246.29,159.08c-.52,0-.93.41-.93.93s.41.93.93.93.93-.41.93-.93-.41-.93-.93-.93h0ZM209.1,157.21c-.52,0-.93.41-.93.93s.41.93.93.93.93-.41.93-.93-.41-.93-.93-.93h0ZM191.43,213.02c-.52,0-.93.41-.93.93s.41.93.93.93.93-.41.93-.93-.42-.93-.93-.93h0ZM155.17,281.83c-.52,0-.93.41-.93.93s.41.93.93.93.93-.41.93-.93c0-.52-.42-.93-.93-.93h0ZM244.64,325c-.91,0-1.66.75-1.66,1.66s.75,1.66,1.66,1.66,1.66-.75,1.66-1.66-.74-1.66-1.66-1.66h0ZM148.86,295.25c-.91,0-1.66.75-1.66,1.66s.75,1.66,1.66,1.66,1.66-.75,1.66-1.66-.75-1.66-1.66-1.66h0ZM219.53,241.31c.91,0,1.66.75,1.66,1.66s-.75,1.66-1.66,1.66-1.66-.75-1.66-1.66.75-1.66,1.66-1.66h0ZM207.44,176.22c-.91,0-1.66.75-1.66,1.66s.75,1.66,1.66,1.66,1.66-.75,1.66-1.66-.74-1.66-1.66-1.66h0ZM279.05,158.55c-.91,0-1.66.75-1.66,1.66s.75,1.66,1.66,1.66,1.66-.75,1.66-1.66-.75-1.66-1.66-1.66h0ZM330.19,200.4c-.91,0-1.66.75-1.66,1.66s.75,1.66,1.66,1.66,1.66-.75,1.66-1.66c0-.91-.75-1.66-1.66-1.66h0ZM317.17,277.59c-.91,0-1.66.75-1.66,1.66s.75,1.66,1.66,1.66,1.66-.75,1.66-1.66c.01-.92-.74-1.66-1.66-1.66h0ZM336.03,245.57c-1.28,0-2.33,1.05-2.33,2.33s1.05,2.32,2.33,2.32,2.33-1.05,2.33-2.32-1.05-2.33-2.33-2.33h0ZM143.94,257.65c-1.28,0-2.33,1.05-2.33,2.33s1.05,2.33,2.33,2.33,2.33-1.05,2.33-2.33-1.05-2.33-2.33-2.33h0ZM235.6,151.64c-1.28,0-2.33,1.05-2.33,2.33s1.05,2.33,2.33,2.33,2.33-1.05,2.33-2.33-1.05-2.33-2.33-2.33h0ZM220.72,316.24c-1.28,0-2.32,1.05-2.32,2.33s1.05,2.33,2.32,2.33,2.33-1.05,2.33-2.33-1.05-2.33-2.33-2.33h0ZM275.59,311.59c-1.8,0-3.25,1.46-3.25,3.25s1.46,3.25,3.25,3.25,3.25-1.46,3.25-3.25-1.46-3.25-3.25-3.25h0ZM304.42,163.73c1.8,0,3.25,1.46,3.25,3.25s-1.46,3.25-3.25,3.25-3.25-1.46-3.25-3.25c0-1.79,1.46-3.25,3.25-3.25h0ZM170.98,296.71l-.51,2.27-2.28.53,2.27.51.53,2.28.51-2.27,2.28-.53-2.27-.51-.53-2.28h0ZM327.2,262.3l-.51,2.27-2.28.53,2.27.51.53,2.28.51-2.27,2.28-.53-2.27-.51-.53-2.28h0ZM220.26,162.79l-.51,2.27-2.28.52,2.27.51.53,2.28.51-2.27,2.28-.53-2.27-.51-.53-2.27h0ZM141.37,275.63l-.65,2.9-2.91.67,2.9.65.67,2.91.65-2.9,2.91-.67-2.9-.65-.67-2.91h0ZM252.03,308.18l-.65,2.9-2.91.67,2.9.65.67,2.91.65-2.9,2.91-.67-2.9-.65-.67-2.91h0ZM197.01,310.66l-1.36,6.05-6.08,1.4,6.05,1.36,1.4,6.08,1.36-6.05,6.08-1.4-6.05-1.36-1.4-6.08h0ZM130.47,225.1l-1.53,6.8-6.84,1.57,6.8,1.53,1.57,6.84,1.53-6.8,6.84-1.57-6.8-1.53-1.57-6.84h0ZM302.13,289.33l-1.86,8.28-8.33,1.92,8.28,1.86,1.92,8.33,1.86-8.28,8.33-1.92-8.28-1.86-1.92-8.33h0ZM317.13,183.57l-.65,2.9-2.91.67,2.9.65.67,2.91.65-2.9,2.91-.67-2.9-.65-.67-2.91h0ZM194.37,189.15l-.65,2.9-2.91.67,2.9.65.67,2.91.65-2.9,2.91-.67-2.9-.65-.67-2.91h0ZM205.38,220.45l-1.53,6.8-6.84,1.57,6.8,1.53,1.57,6.84,1.53-6.8,6.84-1.57-6.8-1.53-1.57-6.84h0ZM262.13,137.75l-1.86,8.28-8.33,1.92,8.28,1.86,1.92,8.33,1.86-8.28,8.33-1.92-8.28-1.86-1.92-8.33h0ZM329.06,219.53l-1.36,6.05-6.08,1.4,6.05,1.36,1.4,6.08,1.36-6.05,6.08-1.4-6.05-1.36-1.4-6.08Z" data-layer-id="5461997772235"/><text class="cls-2" transform="translate(126.63 397.9)"><tspan x="0" y="0">IWGF</tspan></text><text class="cls-2" transform="translate(157.37 448.96)"><tspan x="0" y="0">OPS</tspan></text></g></svg>