<?xml version="1.0" encoding="UTF-8"?><svg xmlns="http://www.w3.org/2000/svg" viewBox="0 0 1024 1024"><defs><style>.cls-1{fill-rule:evenodd;}.cls-1,.cls-2{fill:#fff;}.cls-2{font-family:Federation, Federation;}.cls-2,.cls-3{font-size:36px;}.cls-3{fill:#38bdf8;font-family:FederationWide, FederationWide;}</style></defs><rect width="1024" height="1024"/><g id="_9999_1" data-layer-role="icon" data-root-id="6458161972235"><path class="cls-1" d="M514.22,424.4l-3.34,20.12-6.25-12.06,4.98,15.92-16.13-13.65,13.34,16.04-15.62-4.89,12.32,6.38-20.38,3.21,20.12,3.34-12.05,6.25,15.92-4.98-13.65,16.13,16.04-13.34-4.89,15.62,6.38-12.32,3.21,20.38,3.34-20.12,6.25,12.05-4.98-15.92,16.13,13.65-13.34-16.04,15.62,4.89-12.32-6.38,20.38-3.21-20.12-3.34,12.05-6.25-15.92,4.98,13.65-16.13-16.04,13.34,4.89-15.62-6.38,12.32-3.21-20.38h0ZM595.03,456.2c-.36,0-.65.29-.65.65s.29.65.65.65.65-.29.65-.65c0-.35-.29-.65-.65-.65h0ZM529.16,392.92c-.36,0-.65.29-.65.65s.29.65.65.65.65-.29.65-.65-.29-.65-.65-.65h0ZM483.3,380c-.36,0-.65.29-.65.65s.29.65.65.65.65-.29.65-.65-.29-.65-.65-.65h0ZM461.35,420.04c-.36,0-.65.29-.65.65s.29.65.65.65.65-.29.65-.65c0-.36-.29-.65-.65-.65h0ZM474.27,480.1c-.36,0-.65.29-.65.65s.29.65.65.65.65-.29.65-.65c0-.36-.29-.65-.65-.65h0ZM538.84,492.37c-.36,0-.65.29-.65.65s.29.65.65.65.65-.29.65-.65-.29-.65-.65-.65h0ZM543.36,465.9c.36,0,.65.29.65.65s-.29.65-.65.65-.65-.29-.65-.65.29-.65.65-.65h0ZM535.32,481.45l.29,1.29,1.29.29-1.29.29-.29,1.29-.29-1.29-1.29-.29,1.29-.29.29-1.29h0ZM498.8,489.79l-.59,2.62-2.64.6,2.62.59.6,2.64.59-2.62,2.64-.6-2.62-.59-.6-2.64h0ZM561.77,411c-.89,0-1.62.73-1.62,1.62s.73,1.62,1.62,1.62,1.62-.73,1.62-1.62c0-.9-.73-1.62-1.62-1.62h0ZM582.76,431.02c-.36,0-.65.29-.65.65s.29.65.65.65.65-.29.65-.65-.29-.65-.65-.65h0ZM565.32,394.21c-.36,0-.65.29-.65.65s.29.65.65.65.65-.29.65-.65-.29-.65-.65-.65h0ZM451.66,445.23c-.36,0-.65.29-.65.65s.29.65.65.65.65-.29.65-.65c0-.35-.29-.65-.65-.65h0ZM488.47,499.47c-.36,0-.65.29-.65.65s.29.65.65.65.65-.29.65-.65-.29-.65-.65-.65h0ZM459.74,475.58c-.89,0-1.62.73-1.62,1.62s.73,1.62,1.62,1.62,1.62-.73,1.62-1.62c0-.89-.73-1.62-1.62-1.62h0ZM497.83,389.69c-.89,0-1.62.73-1.62,1.62s.73,1.62,1.62,1.62,1.62-.73,1.62-1.62-.73-1.62-1.62-1.62h0ZM590.51,420.04c-.71,0-1.29.58-1.29,1.29s.58,1.29,1.29,1.29,1.29-.58,1.29-1.29-.58-1.29-1.29-1.29h0ZM531.09,383.23c-.71,0-1.29.58-1.29,1.29s.58,1.29,1.29,1.29,1.29-.58,1.29-1.29-.58-1.29-1.29-1.29h0ZM461.35,407.13c-.71,0-1.29.58-1.29,1.29s.58,1.29,1.29,1.29,1.29-.58,1.29-1.29c0-.72-.58-1.29-1.29-1.29h0ZM542.07,475.58c.71,0,1.29.58,1.29,1.29s-.58,1.29-1.29,1.29-1.29-.58-1.29-1.29c0-.72.58-1.29,1.29-1.29h0ZM511.08,502.06c-.71,0-1.29.58-1.29,1.29s.58,1.29,1.29,1.29,1.29-.58,1.29-1.29-.58-1.29-1.29-1.29h0ZM604.42,467.89l-.29,1.29-1.29.29,1.29.29.29,1.29.29-1.29,1.29-.29-1.29-.29-.29-1.29h0ZM574.71,409.12l-.29,1.29-1.29.29,1.29.29.29,1.29.29-1.29,1.29-.29-1.29-.29-.29-1.29h0ZM512.72,380.06l-.29,1.29-1.29.29,1.29.29.29,1.29.29-1.29,1.29-.29-1.29-.29-.29-1.29h0ZM450.07,459.49l-.29,1.29-1.29.29,1.29.29.29,1.29.29-1.29,1.29-.29-1.29-.29-.29-1.29h0ZM478.46,390.98l-1,4.46-4.49,1.03,4.46,1.01,1.03,4.49,1.01-4.46,4.49-1.03-4.46-1-1.04-4.49h0ZM598.17,438.44l-1.01,4.46-4.49,1.03,4.46,1.01,1.03,4.49,1.01-4.46,4.49-1.03-4.46-1.01-1.03-4.49h0ZM551.11,390.98l-.71,3.15-3.16.73,3.15.7.73,3.16.7-3.15,3.16-.73-3.15-.7-.72-3.16h0ZM449.73,426.5l-.7,3.15-3.16.73,3.15.7.73,3.16.7-3.15,3.16-.73-3.15-.7-.73-3.16h0ZM524.64,491.08l-.7,3.15-3.16.73,3.15.7.73,3.16.7-3.15,3.16-.73-3.15-.7-.73-3.16h0ZM472,489.14l-.53,2.36-2.37.55,2.36.53.55,2.37.53-2.36,2.37-.55-2.36-.53-.55-2.37h0ZM570.81,493.01l-.53,2.36-2.37.55,2.36.53.55,2.37.53-2.36,2.37-.55-2.36-.53-.55-2.37h0ZM419.15,482.32c-.63,0-1.15.52-1.15,1.15s.52,1.15,1.15,1.15,1.15-.52,1.15-1.15-.52-1.15-1.15-1.15h0ZM420.95,449.75c-.36,0-.65.29-.65.65s.29.65.65.65.65-.29.65-.65c0-.36-.29-.65-.65-.65h0ZM428.69,476.87c-.36,0-.65.29-.65.65s.29.65.65.65.65-.29.65-.65-.29-.65-.65-.65h0ZM458.12,523.37c-.36,0-.65.29-.65.65s.29.65.65.65.65-.29.65-.65-.29-.65-.65-.65h0ZM478.79,520.14c-.36,0-.65.29-.65.65s.29.65.65.65.65-.29.65-.65c0-.36-.29-.65-.65-.65h0ZM532.39,508.52c-.36,0-.65.29-.65.65s.29.65.65.65.65-.29.65-.65c0-.36-.29-.65-.65-.65h0ZM558.22,507.87c-.36,0-.65.29-.65.65s.29.65.65.65.65-.29.65-.65-.29-.65-.65-.65h0ZM573.07,465.9c-.36,0-.65.29-.65.65s.29.65.65.65.65-.29.65-.65c0-.36-.29-.65-.65-.65h0ZM545.3,431.02c.36,0,.65.29.65.65s-.29.65-.65.65-.65-.29-.65-.65c0-.36.29-.65.65-.65h0ZM535.61,410.36c-.36,0-.65.29-.65.65s.29.65.65.65.65-.29.65-.65-.29-.65-.65-.65h0ZM505.26,416.81c-.36,0-.65.29-.65.65s.29.65.65.65.65-.29.65-.65-.29-.65-.65-.65h0ZM479.43,415.52c-.36,0-.65.29-.65.65s.29.65.65.65.65-.29.65-.65-.29-.65-.65-.65h0ZM467.16,454.27c-.36,0-.65.29-.65.65s.29.65.65.65.65-.29.65-.65-.29-.65-.65-.65h0ZM441.98,502.06c-.36,0-.65.29-.65.65s.29.65.65.65.65-.29.65-.65c0-.36-.29-.65-.65-.65h0ZM504.11,532.04c-.63,0-1.15.52-1.15,1.15s.52,1.15,1.15,1.15,1.15-.52,1.15-1.15-.51-1.15-1.15-1.15h0ZM437.6,511.38c-.63,0-1.15.52-1.15,1.15s.52,1.15,1.15,1.15,1.15-.52,1.15-1.15-.52-1.15-1.15-1.15h0ZM486.67,473.92c.63,0,1.15.52,1.15,1.15s-.52,1.15-1.15,1.15-1.15-.52-1.15-1.15.52-1.15,1.15-1.15h0ZM478.28,428.72c-.63,0-1.15.52-1.15,1.15s.52,1.15,1.15,1.15,1.15-.52,1.15-1.15-.51-1.15-1.15-1.15h0ZM528.01,416.45c-.63,0-1.15.52-1.15,1.15s.52,1.15,1.15,1.15,1.15-.52,1.15-1.15-.52-1.15-1.15-1.15h0ZM563.52,445.51c-.63,0-1.15.52-1.15,1.15s.52,1.15,1.15,1.15,1.15-.52,1.15-1.15c0-.63-.52-1.15-1.15-1.15h0ZM554.48,499.11c-.63,0-1.15.52-1.15,1.15s.52,1.15,1.15,1.15,1.15-.52,1.15-1.15c0-.64-.51-1.15-1.15-1.15h0ZM567.58,476.87c-.89,0-1.62.73-1.62,1.62s.73,1.61,1.62,1.61,1.62-.73,1.62-1.61-.73-1.62-1.62-1.62h0ZM434.18,485.26c-.89,0-1.62.73-1.62,1.62s.73,1.62,1.62,1.62,1.62-.73,1.62-1.62-.73-1.62-1.62-1.62h0ZM497.83,411.65c-.89,0-1.62.73-1.62,1.62s.73,1.62,1.62,1.62,1.62-.73,1.62-1.62-.73-1.62-1.62-1.62h0ZM487.5,525.95c-.89,0-1.61.73-1.61,1.62s.73,1.62,1.61,1.62,1.62-.73,1.62-1.62-.73-1.62-1.62-1.62h0ZM525.61,522.72c-1.25,0-2.26,1.01-2.26,2.26s1.01,2.26,2.26,2.26,2.26-1.01,2.26-2.26-1.01-2.26-2.26-2.26h0ZM545.62,420.04c1.25,0,2.26,1.01,2.26,2.26s-1.01,2.26-2.26,2.26-2.26-1.01-2.26-2.26c0-1.24,1.01-2.26,2.26-2.26h0ZM452.96,512.39l-.35,1.57-1.58.37,1.57.35.37,1.58.35-1.57,1.58-.37-1.57-.35-.37-1.58h0ZM561.45,488.49l-.35,1.57-1.58.37,1.57.35.37,1.58.35-1.57,1.58-.37-1.57-.35-.37-1.58h0ZM487.18,419.39l-.35,1.57-1.58.36,1.57.35.37,1.58.35-1.57,1.58-.37-1.57-.35-.37-1.57h0ZM432.39,497.75l-.45,2.01-2.02.47,2.01.45.47,2.02.45-2.01,2.02-.47-2.01-.45-.47-2.02h0ZM509.24,520.36l-.45,2.01-2.02.47,2.01.45.47,2.02.45-2.01,2.02-.47-2.01-.45-.47-2.02h0ZM471.04,522.07l-.94,4.2-4.22.97,4.2.94.97,4.22.94-4.2,4.22-.97-4.2-.94-.97-4.22h0ZM424.82,462.66l-1.06,4.72-4.75,1.09,4.72,1.06,1.09,4.75,1.06-4.72,4.75-1.09-4.72-1.06-1.09-4.75h0ZM544.03,507.26l-1.29,5.75-5.79,1.33,5.75,1.29,1.33,5.79,1.29-5.75,5.79-1.33-5.75-1.29-1.33-5.79h0ZM554.45,433.82l-.45,2.01-2.02.47,2.01.45.47,2.02.45-2.01,2.02-.47-2.01-.45-.47-2.02h0ZM469.2,437.7l-.45,2.01-2.02.47,2.01.45.47,2.02.45-2.01,2.02-.47-2.01-.45-.47-2.02h0ZM476.85,459.43l-1.06,4.72-4.75,1.09,4.72,1.06,1.09,4.75,1.06-4.72,4.75-1.09-4.72-1.06-1.09-4.75h0ZM516.26,402l-1.29,5.75-5.79,1.33,5.75,1.29,1.33,5.79,1.29-5.75,5.79-1.33-5.75-1.29-1.33-5.79h0ZM562.73,458.79l-.94,4.2-4.22.97,4.2.94.97,4.22.94-4.2,4.22-.97-4.2-.94-.97-4.22Z" data-layer-id="5461997772235"/><text class="cls-2" transform="translate(77.1 586.16)"><tspan x="0" y="0">Interstellar Warp Gaming Federation</tspan></text><text class="cls-3" transform="translate(423.74 635.97)"><tspan x="0" y="0">IWGF</tspan></text></g></svg>